<svg xmlns="http://www.w3.org/2000/svg" width="187" height="89.17" viewBox="0 0 187 89.17">
  <g id="Group_10" data-name="Group 10" transform="translate(-11.87 -12.628)">
    <g id="Group_8" data-name="Group 8" transform="translate(11.87 12.628)">
      <path id="Path_758" data-name="Path 758" d="M64.071,52.544s-.4,17.177-.377,18.317c.007.334.265,3.593.963,4.548,1.212,1.659,1.88,1.237,1.961,1.1a4.461,4.461,0,0,0-.6-3.037c-.825-1.229-1.532-1.324-1.769-2.315a10.11,10.11,0,0,1-.2-1.188c-.012-1.288-.033-4.221-.018-6.308.025-2.754.046-11.113.046-11.113" transform="translate(-21.273 -19.871)" fill="#c8974e"/>
      <path id="Path_759" data-name="Path 759" d="M62.044,70.831C61.59,68.261,60.165,60.5,60.165,60.5s2.575,16.14,2.8,17.187A7.541,7.541,0,0,0,64,80.412a24.516,24.516,0,0,1,1.9,2.274c.2.43.535.492.414-.5s-.177-2.857-1.243-3.765c-1.017-.864-1.634-.765-1.876-1.542s-.784-3.991-1.15-6.051" transform="translate(-20.633 -21.314)" fill="#c8974e"/>
      <path id="Path_760" data-name="Path 760" d="M64.665,65.779c-.036.715-.4,3.626.458,4.941.455.7,1,.969,1.22.727a4.612,4.612,0,0,0,.1-3c-.413-1.109-1.068-1.82-1.294-2.594-.042-.145-.083-.412-.083-.412s-.045-4.226-.021-6.984.047-11.153.047-11.153-.365,17.322-.424,18.475" transform="translate(-21.43 -18.92)" fill="#c8974e"/>
      <path id="Path_761" data-name="Path 761" d="M66.114,60.163c.052-1.441.155-4.067.258-5.984.148-2.783.553-11.247.553-11.247s-1.092,16.024-1.206,18.291a8.551,8.551,0,0,0-.055,3.582c.625,1.768,1.462,1.822,1.509.082a10.406,10.406,0,0,0-.9-3.765,4.837,4.837,0,0,1-.157-.96" transform="translate(-21.599 -18.127)" fill="#c8974e"/>
      <path id="Path_762" data-name="Path 762" d="M66.912,56.146c0,.041-.661,3.184-.026,4.5.335.695.782,1.038.984.864a4.047,4.047,0,0,0,.313-2.618c-.268-1.049-.769-1.8-.907-2.517a59.236,59.236,0,0,1,.472-6.521c.229-2.422.888-9.8.888-9.8S66.98,55.136,66.912,56.146" transform="translate(-21.802 -17.605)" fill="#c8974e"/>
      <path id="Path_763" data-name="Path 763" d="M69.918,36.416S68.585,48.535,68.256,51.8A8.714,8.714,0,0,0,67.69,55.4c.344,1.706,1.041,1.969,1.263.455a10.584,10.584,0,0,0-.371-3.529c-.02-.159-.029-.3-.037-.416.086-1.1.3-3.777.479-5.661.231-2.431.894-9.83.894-9.83" transform="translate(-21.989 -16.944)" fill="#c8974e"/>
      <path id="Path_764" data-name="Path 764" d="M69.631,47.655a10.838,10.838,0,0,0-.646,3.443c.268,1.666.877,1.453,1.139.019a7.468,7.468,0,0,0-.188-2.893,5.937,5.937,0,0,1,.008-.689s.4-3.564.7-5.875,1.188-9.368,1.188-9.368-1.984,14.426-2.2,15.363" transform="translate(-22.229 -16.196)" fill="#c8974e"/>
      <path id="Path_765" data-name="Path 765" d="M73.194,29.944S71.151,44.073,71.066,44.4s-.4,1.3-.589,1.951c-.252.893-.128,2.269.357,2.25.536-.02.7-2.109.577-2.674a8.636,8.636,0,0,1-.041-1.7c.132-1.13.405-3.436.627-5.09.305-2.275,1.2-9.2,1.2-9.2" transform="translate(-22.481 -15.77)" fill="#c8974e"/>
      <path id="Path_766" data-name="Path 766" d="M75.417,27.042s-2.432,13.041-2.637,13.64-1.191,2.808-1,3.584.959.638,1.169-1.133c.11-.918,0-1.705.056-2.2s.537-3.271.813-4.8c.4-2.247,1.595-9.1,1.595-9.1" transform="translate(-22.737 -15.243)" fill="#c8974e"/>
      <path id="Path_767" data-name="Path 767" d="M75.334,53.1S73.1,61.119,72.38,63.759c-.628,2.3-.735,2.686-1.408,4.975,0,0-.314,1.238-.488,1.9-.335.89-1.025,1.136-1.885,2.408a4.946,4.946,0,0,0-.8,3.133c.071.131.814.639,2.05-1.359,1.107-1.789,1.078-4.525,1.211-5.154S75.334,53.1,75.334,53.1" transform="translate(-22.012 -19.971)" fill="#c8974e"/>
      <path id="Path_768" data-name="Path 768" d="M74.637,57.38s-1.8,8.2-2.374,10.9c-.539,2.519-1.413,6.276-1.522,6.738-.093.266-.25.7-.4,1.014-.311.663-1.008.554-1.887,2.123s-.433,2.471-.4,3.487.342.742.471.2.805-1.134,1.568-2.926A13.938,13.938,0,0,0,71,75.5c.009-.035.019-.069.027-.108.267-1.108,3.611-18.016,3.611-18.016" transform="translate(-22.039 -20.748)" fill="#c8974e"/>
      <path id="Path_769" data-name="Path 769" d="M75.654,50.914s-2.685,7.749-3.553,10.3c-.756,2.235-1.942,5.71-2.2,6.23s-1.216.982-1.879,1.809a4.457,4.457,0,0,0-.746,2.866c.137.317.728.291,1.351-.169,1.509-1.118,1.738-4.613,1.816-4.915s5.212-16.121,5.212-16.121" transform="translate(-21.917 -19.575)" fill="#c8974e"/>
      <path id="Path_770" data-name="Path 770" d="M76.6,46.961s-2.909,7.608-3.85,10.115c-.647,1.723-1.565,4.057-2.073,5.334a3.394,3.394,0,0,1-.5.715,7.159,7.159,0,0,0-2.211,2.6c-.623,1.525.114,2.065,1.325.987A7.154,7.154,0,0,0,70.611,63.6c.772-2.03,5.988-16.635,5.988-16.635" transform="translate(-22.007 -18.858)" fill="#c8974e"/>
      <path id="Path_771" data-name="Path 771" d="M76.965,43.847s-2.543,6.62-3.368,8.8-2.14,5.465-2.14,5.465a2.883,2.883,0,0,1-.19.279c-.412.489-1.139.7-1.8,1.352a3.717,3.717,0,0,0-.832,2.4c.1.3.6.377,1.17.07,1.069-.575,1.584-2.757,1.809-3.619.146-.559,5.346-14.748,5.346-14.748" transform="translate(-22.168 -18.293)" fill="#c8974e"/>
      <path id="Path_772" data-name="Path 772" d="M77.443,41.257s-2.851,6.35-3.774,8.446c-.719,1.623-1.765,3.886-2.2,4.814-.059.086-.129.183-.218.289a6.684,6.684,0,0,0-1.883,2.4c-.511,1.365.147,1.789,1.185.778.652-.634,1.037-2.84,1.187-3.282s5.7-13.441,5.7-13.441" transform="translate(-22.271 -17.823)" fill="#c8974e"/>
      <path id="Path_773" data-name="Path 773" d="M78.035,36.462s-2.639,6.16-3.494,8.191-2.224,5.112-2.231,5.154a3.545,3.545,0,0,1-.3.455,4.7,4.7,0,0,0-1.491,2c-.472,1.321-.114,2.053.865,1.049.6-.612.924-2.629,1.081-3.111s5.574-13.741,5.574-13.741" transform="translate(-22.473 -16.953)" fill="#c8974e"/>
      <path id="Path_774" data-name="Path 774" d="M76.77,31.189s-1.836,6.616-2.428,8.8c-.431,1.586-1.061,3.77-1.371,4.838a7.255,7.255,0,0,1-.677,1.448c-.318.408-.961,2.33-.5,2.7.415.336,1.04-.777,1.156-1.72.085-.687.178-1.622.223-2.082.749-2.816,3.6-13.981,3.6-13.981" transform="translate(-22.714 -15.996)" fill="#c8974e"/>
      <path id="Path_775" data-name="Path 775" d="M67.923,88.267a.5.5,0,0,0-.173-.04.474.474,0,0,0-.5.425,25.727,25.727,0,0,0,2.809,12.281c2.936,5.754,9.6,12.959,24.9,14.58a.487.487,0,0,0,.549-.4.467.467,0,0,0-.438-.5c-11.94-1.256-20-5.976-24.128-14.035A25.349,25.349,0,0,1,68.2,88.7a.437.437,0,0,0-.275-.43" transform="translate(-21.914 -26.345)" fill="#c8974e"/>
      <path id="Path_776" data-name="Path 776" d="M33.716,51.135s9.276,21.741,9.97,23.171c.2.418,2.5,4.4,4.139,5.222,2.86,1.436,3.655.528,3.7.3a5.672,5.672,0,0,0-2.711-3.521c-2-1.1-3.155-.824-4.1-1.946a11.839,11.839,0,0,1-1.007-1.386c-.766-1.617-2.5-5.3-3.678-7.932-1.55-3.465-6.313-13.914-6.313-13.914" transform="translate(-15.834 -19.615)" fill="#c8974e"/>
      <path id="Path_777" data-name="Path 777" d="M40.984,75.217C38.8,72.236,32.152,63.3,32.152,63.3s13.28,18.871,14.243,20.073a10.608,10.608,0,0,0,3.2,2.9,41.59,41.59,0,0,1,4.3,1.849c.569.435,1.13.33.356-.864S52.3,83.712,50.1,83.15c-2.091-.535-2.991-.067-3.823-.919s-3.535-4.618-5.292-7.013" transform="translate(-15.55 -21.822)" fill="#c8974e"/>
      <path id="Path_778" data-name="Path 778" d="M42.3,67.352c.359.922,1.48,4.8,3.58,5.98,1.111.627,2.123.669,2.317.243A5.428,5.428,0,0,0,46.6,69.722c-1.287-1.167-2.715-1.7-3.513-2.545a5.962,5.962,0,0,1-.369-.476s-2.513-5.284-4.065-8.751-6.319-13.921-6.319-13.921S41.722,65.867,42.3,67.352" transform="translate(-15.583 -18.325)" fill="#c8974e"/>
      <path id="Path_779" data-name="Path 779" d="M41.6,59.378c-.75-1.838-2.109-5.185-3.054-7.637-1.37-3.554-5.592-14.293-5.592-14.293s7.517,20.574,8.65,23.483c.321,1.412.957,3.562,1.991,4.536,1.993,1.878,3.326,1.48,2.386-.747s-2.847-3.393-3.582-4.229a5.894,5.894,0,0,1-.8-1.113" transform="translate(-15.695 -17.132)" fill="#c8974e"/>
      <path id="Path_780" data-name="Path 780" d="M40.711,53.823c.02.056.818,4.362,2.558,5.655.922.684,1.812.861,2.025.531a4.65,4.65,0,0,0-1.034-3.468C43.237,55.379,42.03,54.72,41.4,53.9c-.58-.756-1.992-5.263-3.03-8.408s-4.249-12.666-4.249-12.666,6.113,19.7,6.589,21" transform="translate(-15.908 -16.293)" fill="#c8974e"/>
      <path id="Path_781" data-name="Path 781" d="M34.093,27.56s4.9,15.785,6.273,20.047c.043,1.067.249,3.594,1.2,4.811,1.518,1.946,2.749,1.879,2.215-.144s-2.072-3.367-2.61-4.2c-.123-.189-.218-.355-.3-.5-.5-1.419-1.717-4.876-2.524-7.327C37.31,37.094,34.093,27.56,34.093,27.56" transform="translate(-15.902 -15.337)" fill="#c8974e"/>
      <path id="Path_782" data-name="Path 782" d="M40.295,41.581c.157.981.15,3.485.99,4.661,1.373,1.933,2.193,1.316,1.766-.625s-1.474-2.679-1.956-3.505a6.634,6.634,0,0,1-.386-.861s-1.438-4.661-2.3-7.7-3.543-12.262-3.543-12.262,5.228,19,5.432,20.294" transform="translate(-16.042 -14.199)" fill="#c8974e"/>
      <path id="Path_783" data-name="Path 783" d="M35.594,17.606s4.969,18.651,5.026,19.11.13,1.848.219,2.765c.124,1.256,1.111,2.9,1.846,2.6.814-.332-.136-3.034-.652-3.662a10.136,10.136,0,0,1-1.043-2.091c-.449-1.477-1.352-4.5-1.962-6.676-.837-2.99-3.434-12.045-3.434-12.045" transform="translate(-16.175 -13.531)" fill="#c8974e"/>
      <path id="Path_784" data-name="Path 784" d="M37.613,12.628s3.749,17.516,3.782,18.377-.218,4.174.532,5.028,1.843.242,1.148-2.084c-.363-1.2-.98-2.122-1.184-2.765s-1.055-4.368-1.509-6.413c-.671-3.011-2.768-12.144-2.768-12.144" transform="translate(-16.541 -12.628)" fill="#c8974e"/>
      <path id="Path_785" data-name="Path 785" d="M53.861,44.466s1.207,11.348,1.63,15.079c.37,3.257.428,3.8.721,7.078,0,0,.236,1.742.353,2.684,0,1.314-.933,2.013-1.531,4.107a5.7,5.7,0,0,0,.58,4.424c.187.127,1.647.362,2.407-2.868.68-2.892-.972-6.345-1.13-7.217s-3.029-23.286-3.029-23.286" transform="translate(-19.489 -18.405)" fill="#c8974e"/>
      <path id="Path_786" data-name="Path 786" d="M54.987,50.339s2,11.343,2.677,15.074c.639,3.494,1.478,8.75,1.581,9.4a13.3,13.3,0,0,1-.028,1.512c-.1,1.017-1.252,1.267-1.7,3.753s.772,3.386,1.426,4.667.974.756.856,0,.6-1.895.735-4.605a15.846,15.846,0,0,0-.6-4.852c0-.046-.01-.1-.018-.151-.233-1.558-4.927-24.794-4.927-24.794" transform="translate(-19.693 -19.471)" fill="#c8974e"/>
      <path id="Path_787" data-name="Path 787" d="M53.073,41.445s.345,11.246.487,14.948c.123,3.244.31,8.3.212,9.1S52.45,67.419,51.9,68.837a5.135,5.135,0,0,0,.511,4.04c.4.327,1.307-.034,2.009-.97,1.7-2.26.008-6.811-.046-7.239s-1.3-23.222-1.3-23.222" transform="translate(-19.094 -17.857)" fill="#c8974e"/>
      <path id="Path_788" data-name="Path 788" d="M52.144,35.906s-.082,11.183-.083,14.864c0,2.533-.071,5.993-.114,7.885a4.239,4.239,0,0,1-.368,1.185c-.405.9-1.845,2.247-1.922,4.525s1.383,2.544,2.641.5c.653-1.062.459-3.254.238-4.681.017-2.993-.393-24.28-.393-24.28" transform="translate(-18.726 -16.852)" fill="#c8974e"/>
      <path id="Path_789" data-name="Path 789" d="M50.677,31.884s-.094,9.724-.1,12.925-.142,8.074-.142,8.074a3.605,3.605,0,0,1-.134.46c-.352.848-1.357,1.527-2,2.718a4.277,4.277,0,0,0,.1,3.48c.322.326,1.155.133,1.856-.568,1.326-1.332.854-4.368.7-5.577-.1-.787-.285-21.512-.285-21.512" transform="translate(-18.422 -16.122)" fill="#c8974e"/>
      <path id="Path_790" data-name="Path 790" d="M49.763,28.4s-.728,9.557-.943,12.7c-.169,2.443-.48,5.871-.611,7.279a4.788,4.788,0,0,1-.166.485c-.326.813-1.522,2.069-1.524,4.073s1.265,2.164,2.286.307c.643-1.169-.043-4.154-.069-4.8S49.763,28.4,49.763,28.4" transform="translate(-18.157 -15.49)" fill="#c8974e"/>
      <path id="Path_791" data-name="Path 791" d="M47.893,22.175s-.512,9.18-.658,12.2-.478,7.649-.464,7.707a4.544,4.544,0,0,1-.209.743c-.292.788-1.181,1.43-1.146,3.354s1.016,2.632,1.949.819c.57-1.108-.1-3.814-.133-4.507s.661-20.319.661-20.319" transform="translate(-17.957 -14.36)" fill="#c8974e"/>
      <path id="Path_792" data-name="Path 792" d="M42.565,16.74s.986,9.248,1.33,12.294c.25,2.215.538,5.3.678,6.806a8.327,8.327,0,0,1-.208,2.19c-.255.689-.137,3.456.783,3.657.836.183,1.162-1.566.794-2.808-.268-.907-.665-2.128-.859-2.723-.471-3.932-2.518-19.415-2.518-19.415" transform="translate(-17.44 -13.374)" fill="#c8974e"/>
      <path id="Path_793" data-name="Path 793" d="M21.724,85.4s12.784,9.544,13.683,10.148c.264.178,3,1.757,4.28,1.717,2.238-.067,2.424-.841,2.375-.983a4.071,4.071,0,0,0-2.84-1.18c-1.594-.006-2.212.512-3.163.159a8.59,8.59,0,0,1-1.078-.48c-1-.692-3.279-2.265-4.867-3.408-2.083-1.5-8.391-5.973-8.391-5.973" transform="translate(-13.658 -25.833)" fill="#c8974e"/>
      <path id="Path_794" data-name="Path 794" d="M34.029,96.909c-2.326-1.035-9.34-4.09-9.34-4.09s14.381,6.71,15.377,7.1a7.841,7.841,0,0,0,2.938.673,31.481,31.481,0,0,1,3.268-.282c.5.074.806-.164-.071-.61s-2.389-1.435-3.93-1.071c-1.462.347-1.863.9-2.658.668s-3.71-1.558-5.583-2.389" transform="translate(-14.196 -27.178)" fill="#c8974e"/>
      <path id="Path_795" data-name="Path 795" d="M32.276,92c.524.417,2.49,2.3,4.171,2.32.891.014,1.528-.279,1.506-.586A3.71,3.71,0,0,0,35.7,92.019c-1.175-.269-2.229-.128-3-.366a3.927,3.927,0,0,1-.382-.156s-3.276-2.242-5.358-3.738S18.6,81.811,18.6,81.811,31.433,91.33,32.276,92" transform="translate(-13.091 -25.181)" fill="#c8974e"/>
      <path id="Path_796" data-name="Path 796" d="M29.242,87.669c-1.059-.816-2.98-2.3-4.356-3.4-1.987-1.592-8.014-6.354-8.014-6.354s11.234,9.331,12.878,10.637a6.84,6.84,0,0,0,2.709,1.977c1.843.456,2.529-.186,1.221-1.167A9.8,9.8,0,0,0,30.1,88.057a4.033,4.033,0,0,1-.855-.388" transform="translate(-12.778 -24.475)" fill="#c8974e"/>
      <path id="Path_797" data-name="Path 797" d="M26.894,84.79c.031.025,1.924,2.23,3.413,2.429.789.1,1.393-.071,1.417-.325a3.1,3.1,0,0,0-1.768-1.655c-1.008-.345-1.96-.346-2.613-.618a45.02,45.02,0,0,1-4.576-3.832c-1.648-1.456-6.651-5.819-6.651-5.819S26.18,84.2,26.894,84.79" transform="translate(-12.641 -23.94)" fill="#c8974e"/>
      <path id="Path_798" data-name="Path 798" d="M14.432,72.037s8.028,7.358,10.243,9.345a6.442,6.442,0,0,0,2.3,2.357c1.562.637,2.3.219,1.31-.764A8.987,8.987,0,0,0,25.318,81.4c-.136-.069-.249-.134-.343-.192-.765-.649-2.623-2.226-3.9-3.358-1.646-1.454-6.64-5.81-6.64-5.81" transform="translate(-12.335 -23.408)" fill="#c8974e"/>
      <path id="Path_799" data-name="Path 799" d="M22.7,78.012c.413.507,1.215,1.92,2.108,2.328,1.468.67,1.768.07.88-.9a6.117,6.117,0,0,0-2.329-1.375,4.838,4.838,0,0,1-.513-.369s-2.375-2.179-3.874-3.62-6.047-5.759-6.047-5.759,9.236,9.027,9.776,9.692" transform="translate(-12.061 -22.733)" fill="#c8974e"/>
      <path id="Path_800" data-name="Path 800" d="M12.206,66.059s8.948,8.885,9.13,9.124.672,1,1.022,1.486c.48.668,1.613,1.293,1.966.9.391-.435-1.062-1.665-1.579-1.861a6.876,6.876,0,0,1-1.306-.854c-.748-.693-2.265-2.108-3.331-3.139-1.46-1.414-5.9-5.656-5.9-5.656" transform="translate(-11.931 -22.323)" fill="#c8974e"/>
      <path id="Path_801" data-name="Path 801" d="M11.87,62.708s7.822,8.578,8.117,9.052,1.2,2.4,1.935,2.654,1.2-.426.029-1.518c-.6-.563-1.275-.888-1.6-1.188s-2.036-2.114-2.962-3.115c-1.365-1.469-5.515-5.885-5.515-5.885" transform="translate(-11.87 -21.715)" fill="#c8974e"/>
      <path id="Path_802" data-name="Path 802" d="M31.883,75.483s4.423,6.015,5.9,8c1.3,1.733,1.513,2.028,2.77,3.8,0,0,.72.923,1.1,1.424.436.751.095,1.441.424,2.829A3.787,3.787,0,0,0,43.912,93.9c.157.014,1.131-.309.521-2.4-.544-1.87-2.7-3.33-3.088-3.778s-9.462-12.236-9.462-12.236" transform="translate(-15.501 -24.033)" fill="#c8974e"/>
      <path id="Path_803" data-name="Path 803" d="M34.471,78.434s4.923,5.793,6.569,7.7c1.544,1.793,3.8,4.538,4.08,4.877a8.694,8.694,0,0,1,.489.877c.279.613-.345,1.118.2,2.691s1.609,1.711,2.439,2.247.854.13.526-.272-.27-1.281-1.093-2.886a10.491,10.491,0,0,0-1.986-2.6c-.019-.025-.039-.051-.065-.08-.66-.82-11.165-12.556-11.165-12.556" transform="translate(-15.971 -24.568)" fill="#c8974e"/>
      <path id="Path_804" data-name="Path 804" d="M30.613,73.94s3.859,6.21,5.153,8.257c1.139,1.8,2.912,4.619,3.117,5.109s-.175,1.51-.043,2.491a3.367,3.367,0,0,0,1.651,2.159c.354.063.792-.427.913-1.183.29-1.825-2.248-3.9-2.424-4.126S30.613,73.94,30.613,73.94" transform="translate(-15.271 -23.753)" fill="#c8974e"/>
      <path id="Path_805" data-name="Path 805" d="M28.415,71.059s3.56,6.282,4.754,8.353c.824,1.432,1.91,3.409,2.506,4.5a2.6,2.6,0,0,1,.165.785,5.739,5.739,0,0,0,.309,3.177c.7,1.325,1.686,1.025,1.783-.534A5.245,5.245,0,0,0,36.539,84.6c-.971-1.706-8.124-13.54-8.124-13.54" transform="translate(-14.872 -23.23)" fill="#c8974e"/>
      <path id="Path_806" data-name="Path 806" d="M26.261,69.25s3.07,5.452,4.1,7.252S32.9,81.1,32.9,81.1a2.319,2.319,0,0,1,.07.3c.059.589-.332,1.283-.337,2.157a2.725,2.725,0,0,0,1.2,1.948c.3.086.751-.283.95-.9.374-1.165-.906-2.742-1.393-3.38-.318-.414-7.128-11.974-7.128-11.974" transform="translate(-14.481 -22.902)" fill="#c8974e"/>
      <path id="Path_807" data-name="Path 807" d="M24.668,67.557s2.619,5.54,3.5,7.366c.686,1.421,1.606,3.448,1.983,4.279a3.031,3.031,0,0,1,.056.327A5.18,5.18,0,0,0,30.6,82.3c.65,1.138,1.477.84,1.5-.529.01-.861-1.379-2.339-1.6-2.691s-5.83-11.524-5.83-11.524" transform="translate(-14.192 -22.595)" fill="#c8974e"/>
      <path id="Path_808" data-name="Path 808" d="M21.448,64.727s2.615,5.244,3.494,6.974,2.17,4.429,2.2,4.458a2.832,2.832,0,0,1,.111.481,3.631,3.631,0,0,0,.385,2.242c.644,1.076,1.474,1.177,1.457-.133-.011-.8-1.295-2.123-1.541-2.5s-6.106-11.521-6.106-11.521" transform="translate(-13.608 -22.081)" fill="#c8974e"/>
      <path id="Path_809" data-name="Path 809" d="M16.169,63.491s3.526,4.82,4.7,6.409c.861,1.16,2.023,2.793,2.592,3.6a5.085,5.085,0,0,1,.578,1.291c.065.467,1.029,1.984,1.656,1.817.567-.153.2-1.235-.423-1.82-.453-.427-1.088-.99-1.4-1.264-1.547-2.057-7.708-10.028-7.708-10.028" transform="translate(-12.65 -21.857)" fill="#c8974e"/>
      <path id="Path_810" data-name="Path 810" d="M98.291,116.9a.583.583,0,0,0-.179-.045c-27.73-1.92-44.987-15.1-45.156-15.227a.482.482,0,0,0-.654.06.423.423,0,0,0,.064.618c.173.134,17.632,13.489,45.671,15.453a.485.485,0,0,0,.537-.416.447.447,0,0,0-.282-.443" transform="translate(-19.187 -28.758)" fill="#c8974e"/>
      <path id="Path_811" data-name="Path 811" d="M60.538,93.956a.5.5,0,0,0-.418.011.434.434,0,0,0-.2.6,41.066,41.066,0,0,0,9.82,10.915c6.154,4.879,16.721,10.5,32.076,9.348a.473.473,0,0,0,.461-.49.49.49,0,0,0-.544-.415c-15,1.142-25.328-4.339-31.345-9.1A40.977,40.977,0,0,1,60.756,94.15a.448.448,0,0,0-.218-.194" transform="translate(-20.579 -27.377)" fill="#c8974e"/>
      <path id="Path_812" data-name="Path 812" d="M110.237,113.473a2.279,2.279,0,0,1-.329.19c-.688.338-2.709,1.029-6.58.161-.129-.03-.353-.092-.645-.175a18.77,18.77,0,0,0-4.753-.871,10.248,10.248,0,0,0-1.852.684,9.974,9.974,0,0,0-1.769,1.18,15.321,15.321,0,0,1-2.644,1.734c-.1.053-.2.1-.295.151-2.61,1.3-4.776,1.776-6.445,1.428a4.408,4.408,0,0,1-.852-.271,3.406,3.406,0,0,1-1.567-1.351,2.137,2.137,0,0,1-.176-.357.473.473,0,0,1,.2-.553.58.58,0,0,1,.61.013c1.2.821,2.725.656,5.133-.549.747-.374,1.58-.846,2.7-1.535.286-.175.581-.339.877-.488a10.213,10.213,0,0,1,5.937-1.072l.025-.006a18.232,18.232,0,0,1,5.916-.309,10.513,10.513,0,0,0,5.389-.643c.043-.02.066-.034.072-.038a.61.61,0,0,1,.548-.038.771.771,0,0,1,.1.056.579.579,0,0,1,.153.166.462.462,0,0,1,0,.445,1.022,1.022,0,0,0,.1,1.049,1.879,1.879,0,0,0,.2.273.461.461,0,0,1,.142.369.532.532,0,0,1-.2.356" transform="translate(-24.65 -30.425)" fill="#c8974e"/>
      <path id="Path_813" data-name="Path 813" d="M76.158,111.714a5.867,5.867,0,0,0-4.142.494,12.268,12.268,0,0,0-2.072,1.406,10.193,10.193,0,0,1-.921.679c-.15.094-.305.182-.462.26a3.713,3.713,0,0,1-2.771.286.406.406,0,0,1-.1-.011,8.564,8.564,0,0,1-2.33-1.183l-.2-.138c-.37-.261-.726-.533-1.1-.82s-.765-.587-1.173-.875a12.808,12.808,0,0,0-2.213-1.279,14.107,14.107,0,0,0-1.959.023c-.3.024-.73.078-1.274.145a47.053,47.053,0,0,1-6.341.458,11.546,11.546,0,0,1-4.58-.959,7,7,0,0,1-1.092-.593l-.021-.007c-.2-.078-.433-.171-.714-.3a13.628,13.628,0,0,1-2.35-1.369c-.366-.26-.744-.549-1.121-.86-.239-.2-.481-.381-.72-.552a8.971,8.971,0,0,0-2.413-1.262,3.717,3.717,0,0,0-.823-.184l-.028,0a.51.51,0,0,1-.442-.347.454.454,0,0,1,.233-.539.756.756,0,0,0,.248-.208,1.281,1.281,0,0,0,.206-.817.457.457,0,0,1,.122-.372.549.549,0,0,1,.327-.155,3.569,3.569,0,0,1,1.609.385,7.538,7.538,0,0,1,1.282.742l.007.006a12.283,12.283,0,0,1,1.956,1.771c.072.079.189.224.341.415a15.214,15.214,0,0,0,2.576,2.685c.067.046.135.09.2.133a14.213,14.213,0,0,0,5.605.118c.7-.07,1.414-.144,2.226-.206a20.675,20.675,0,0,1,7.162.913.239.239,0,0,0,.025,0,18.8,18.8,0,0,1,3.345,1.1,12.316,12.316,0,0,1,2.1,1.164c.1.068.189.136.287.209s.178.136.264.2a5.383,5.383,0,0,0,.895.52,2.437,2.437,0,0,0,.715.2c.076-.053.151-.1.228-.166l.229-.184a23.916,23.916,0,0,1,3.909-2.7,5.283,5.283,0,0,1,3.384-.727,3.289,3.289,0,0,1,.661.209,4.6,4.6,0,0,1,1.774,1.536l0,.007c.011.016.02.03.029.046a.455.455,0,0,1-.031.507.555.555,0,0,1-.568.195" transform="translate(-16.027 -28.959)" fill="#c8974e"/>
      <path id="Path_814" data-name="Path 814" d="M38.665,104.21a11.722,11.722,0,0,1,1.881,1.706,19.013,19.013,0,0,0,2.993,3.165c.084.059.167.115.252.165a.043.043,0,0,1,.015.053.041.041,0,0,1-.053.018,12.553,12.553,0,0,1-3.034-1.635c-.34-.242-.7-.521-1.1-.841-.257-.212-.507-.4-.746-.574a9.41,9.41,0,0,0-2.543-1.326,3.772,3.772,0,0,0-.959-.205.041.041,0,0,1-.038-.03.033.033,0,0,1,.02-.043,1.182,1.182,0,0,0,.389-.328,1.705,1.705,0,0,0,.292-1.127.036.036,0,0,1,.009-.029.044.044,0,0,1,.03-.016,4.46,4.46,0,0,1,2.586,1.046l0,0" transform="translate(-16.127 -29.055)" fill="#fff"/>
      <path id="Path_815" data-name="Path 815" d="M60.768,111.493a.045.045,0,0,1-.046.032,14.223,14.223,0,0,0-2.078.02,63.1,63.1,0,0,1-7.57.6,10.008,10.008,0,0,1-5.427-1.482l-.011-.007.034-.025-.034.025a.037.037,0,0,1,0-.047.038.038,0,0,1,.046-.016c2.5.723,4.6.214,8.071-.052a20.263,20.263,0,0,1,6.988.9l.011.006a.038.038,0,0,1,.018.042" transform="translate(-17.995 -30.388)" fill="#fff"/>
      <path id="Path_816" data-name="Path 816" d="M112.98,111.328a1.456,1.456,0,0,0,.107,1.467,2.113,2.113,0,0,0,.272.363.034.034,0,0,1,.013.031.046.046,0,0,1-.017.029,1.65,1.65,0,0,1-.25.144c-.634.312-2.514.95-6.219.12a22.565,22.565,0,0,0-5.594-1.055.05.05,0,0,1-.048-.036.042.042,0,0,1,.037-.045,17.6,17.6,0,0,1,5.843-.316,11.026,11.026,0,0,0,5.674-.695c.079-.038.116-.06.116-.06a.048.048,0,0,1,.055,0,.047.047,0,0,1,.011.011.035.035,0,0,1,0,.038" transform="translate(-28.086 -30.526)" fill="#fff"/>
      <path id="Path_817" data-name="Path 817" d="M97.96,112.615a.045.045,0,0,1-.034.042,10.654,10.654,0,0,0-1.977.73c-1.609.8-2.186,1.77-4.42,2.92-.1.05-.192.1-.286.145-2.911,1.45-4.839,1.651-6.106,1.387a3.083,3.083,0,0,1-2.1-1.4,1.881,1.881,0,0,1-.138-.28.042.042,0,0,1,.016-.047.05.05,0,0,1,.053,0c1.519,1.041,3.417.6,5.655-.513.865-.434,1.778-.967,2.736-1.554.282-.172.564-.327.841-.467a9.426,9.426,0,0,1,5.726-1l-.011.041.011-.041a.038.038,0,0,1,.029.02.025.025,0,0,1,.007.019" transform="translate(-24.757 -30.745)" fill="#fff"/>
      <path id="Path_818" data-name="Path 818" d="M73.761,114.7a25.123,25.123,0,0,1,4.058-2.826,4.919,4.919,0,0,1,3.047-.679,3.61,3.61,0,0,1,2.14,1.564l0,0a.044.044,0,0,1,0,.046.05.05,0,0,1-.048.016,6.364,6.364,0,0,0-4.494.536,27.242,27.242,0,0,0-3.024,2.1q-.214.133-.431.244a3.456,3.456,0,0,1-3.38-.119.04.04,0,0,1-.022-.047.042.042,0,0,1,.045-.029,2.427,2.427,0,0,0,1.31-.286,4.628,4.628,0,0,0,.8-.526" transform="translate(-22.709 -30.504)" fill="#fff"/>
      <path id="Path_819" data-name="Path 819" d="M70.295,115.263c-.354.043-.564.062-.693.076q-.3-.18-.643-.412c-.065-.043-.127-.088-.191-.133-.745-.525-1.463-1.121-2.276-1.7a13.247,13.247,0,0,0-2.371-1.36.038.038,0,0,1-.023-.048.043.043,0,0,1,.051-.026,16.386,16.386,0,0,1,5.263,2.188c.092.065.181.13.269.2s.19.143.282.209a5.161,5.161,0,0,0,1.347.706,2.911,2.911,0,0,1-1.015.3" transform="translate(-21.346 -30.598)" fill="#fff"/>
    </g>
    <g id="Group_9" data-name="Group 9" transform="translate(113.077 12.628)">
      <path id="Path_820" data-name="Path 820" d="M187.459,52.544s.4,17.177.377,18.317c-.007.334-.265,3.593-.963,4.548-1.212,1.659-1.88,1.237-1.961,1.1a4.466,4.466,0,0,1,.6-3.037c.825-1.229,1.532-1.324,1.769-2.315a10.111,10.111,0,0,0,.2-1.188c.012-1.288.034-4.221.019-6.308-.026-2.754-.047-11.113-.047-11.113" transform="translate(-144.464 -19.871)" fill="#c8974e"/>
      <path id="Path_821" data-name="Path 821" d="M188.78,70.831c.453-2.57,1.879-10.335,1.879-10.335s-2.575,16.14-2.8,17.187a7.558,7.558,0,0,1-1.031,2.729,24.513,24.513,0,0,0-1.9,2.274c-.2.43-.535.492-.413-.5s.176-2.857,1.243-3.765c1.017-.864,1.634-.765,1.876-1.542s.784-3.991,1.15-6.051" transform="translate(-144.397 -21.314)" fill="#c8974e"/>
      <path id="Path_822" data-name="Path 822" d="M187.064,65.779c.036.715.4,3.626-.458,4.941-.455.7-1,.969-1.22.727a4.618,4.618,0,0,1-.1-3c.413-1.109,1.068-1.82,1.294-2.594.042-.145.083-.412.083-.412s.045-4.226.021-6.984S186.64,47.3,186.64,47.3s.365,17.322.424,18.475" transform="translate(-144.506 -18.92)" fill="#c8974e"/>
      <path id="Path_823" data-name="Path 823" d="M185.7,60.163c-.052-1.441-.155-4.067-.258-5.984-.148-2.783-.553-11.247-.553-11.247s1.093,16.024,1.207,18.291a8.563,8.563,0,0,1,.054,3.582c-.625,1.768-1.462,1.822-1.509.082a10.423,10.423,0,0,1,.9-3.765,4.838,4.838,0,0,0,.157-.96" transform="translate(-144.426 -18.127)" fill="#c8974e"/>
      <path id="Path_824" data-name="Path 824" d="M184.831,56.146c0,.041.661,3.184.026,4.5-.335.695-.782,1.038-.984.864a4.052,4.052,0,0,1-.313-2.618c.268-1.049.769-1.8.907-2.517A59.024,59.024,0,0,0,184,49.851c-.229-2.422-.888-9.8-.888-9.8s1.656,15.081,1.724,16.091" transform="translate(-144.147 -17.605)" fill="#c8974e"/>
      <path id="Path_825" data-name="Path 825" d="M181.769,36.416S183.1,48.535,183.431,51.8A8.728,8.728,0,0,1,184,55.4c-.344,1.706-1.041,1.969-1.262.455a10.566,10.566,0,0,1,.37-3.529c.02-.159.029-.3.037-.416-.086-1.1-.3-3.777-.479-5.661-.231-2.431-.894-9.83-.894-9.83" transform="translate(-143.905 -16.944)" fill="#c8974e"/>
      <path id="Path_826" data-name="Path 826" d="M181.924,47.655a10.838,10.838,0,0,1,.646,3.443c-.268,1.666-.877,1.453-1.139.019a7.469,7.469,0,0,1,.188-2.893,5.937,5.937,0,0,0-.008-.689s-.4-3.564-.7-5.875-1.188-9.368-1.188-9.368,1.984,14.426,2.2,15.363" transform="translate(-143.533 -16.196)" fill="#c8974e"/>
      <path id="Path_827" data-name="Path 827" d="M178.368,29.944S180.41,44.073,180.5,44.4s.4,1.3.589,1.951c.251.893.127,2.269-.358,2.25-.536-.02-.7-2.109-.577-2.674a8.636,8.636,0,0,0,.041-1.7c-.131-1.13-.405-3.436-.627-5.09-.305-2.275-1.2-9.2-1.2-9.2" transform="translate(-143.288 -15.77)" fill="#c8974e"/>
      <path id="Path_828" data-name="Path 828" d="M175.964,27.042s2.432,13.041,2.637,13.64,1.191,2.808,1,3.584-.959.638-1.168-1.133c-.111-.918,0-1.705-.057-2.2s-.537-3.271-.813-4.8c-.4-2.247-1.595-9.1-1.595-9.1" transform="translate(-142.851 -15.243)" fill="#c8974e"/>
      <path id="Path_829" data-name="Path 829" d="M175.181,53.1s2.235,8.022,2.954,10.662c.627,2.3.734,2.686,1.407,4.975,0,0,.313,1.238.488,1.9.335.89,1.025,1.136,1.886,2.408a4.943,4.943,0,0,1,.8,3.133c-.071.131-.814.639-2.05-1.359-1.108-1.789-1.079-4.525-1.212-5.154s-4.276-16.57-4.276-16.57" transform="translate(-142.709 -19.971)" fill="#c8974e"/>
      <path id="Path_830" data-name="Path 830" d="M176.065,57.38s1.8,8.2,2.374,10.9c.539,2.519,1.413,6.276,1.522,6.738.093.266.25.7.4,1.014.312.663,1.008.554,1.887,2.123s.434,2.471.4,3.487-.342.742-.471.2-.805-1.134-1.568-2.926a13.941,13.941,0,0,1-.9-3.413c-.008-.035-.019-.069-.027-.108-.267-1.108-3.611-18.016-3.611-18.016" transform="translate(-142.87 -20.748)" fill="#c8974e"/>
      <path id="Path_831" data-name="Path 831" d="M174.672,50.914s2.685,7.749,3.553,10.3c.756,2.235,1.942,5.71,2.2,6.23s1.216.982,1.879,1.809a4.456,4.456,0,0,1,.746,2.866c-.137.317-.728.291-1.351-.169-1.509-1.118-1.738-4.613-1.816-4.915s-5.212-16.121-5.212-16.121" transform="translate(-142.617 -19.575)" fill="#c8974e"/>
      <path id="Path_832" data-name="Path 832" d="M173.629,46.961s2.909,7.608,3.85,10.115c.647,1.723,1.564,4.057,2.072,5.334a3.4,3.4,0,0,0,.5.715,7.159,7.159,0,0,1,2.212,2.6c.622,1.525-.115,2.065-1.326.987a7.154,7.154,0,0,1-1.324-3.118c-.772-2.03-5.988-16.635-5.988-16.635" transform="translate(-142.428 -18.858)" fill="#c8974e"/>
      <path id="Path_833" data-name="Path 833" d="M173.379,43.847s2.542,6.62,3.367,8.8,2.14,5.465,2.14,5.465a2.883,2.883,0,0,0,.19.279c.412.489,1.14.7,1.8,1.352a3.712,3.712,0,0,1,.832,2.4c-.1.3-.6.377-1.17.07-1.069-.575-1.583-2.757-1.809-3.619-.146-.559-5.345-14.748-5.345-14.748" transform="translate(-142.382 -18.293)" fill="#c8974e"/>
      <path id="Path_834" data-name="Path 834" d="M172.921,41.257s2.851,6.35,3.775,8.446c.718,1.623,1.764,3.886,2.2,4.814a3.48,3.48,0,0,0,.217.289,6.684,6.684,0,0,1,1.883,2.4c.511,1.365-.147,1.789-1.184.778-.652-.634-1.038-2.84-1.188-3.282s-5.7-13.441-5.7-13.441" transform="translate(-142.299 -17.823)" fill="#c8974e"/>
      <path id="Path_835" data-name="Path 835" d="M172.444,36.462s2.64,6.16,3.494,8.191,2.224,5.112,2.231,5.154a3.634,3.634,0,0,0,.3.455,4.7,4.7,0,0,1,1.491,2c.472,1.321.114,2.053-.865,1.049-.6-.612-.923-2.629-1.081-3.111s-5.574-13.741-5.574-13.741" transform="translate(-142.213 -16.953)" fill="#c8974e"/>
      <path id="Path_836" data-name="Path 836" d="M174.283,31.189s1.836,6.616,2.428,8.8c.431,1.586,1.061,3.77,1.371,4.838a7.255,7.255,0,0,0,.677,1.448c.318.408.961,2.33.5,2.7-.415.336-1.04-.777-1.156-1.72-.085-.687-.178-1.622-.223-2.082-.748-2.816-3.6-13.981-3.6-13.981" transform="translate(-142.546 -15.996)" fill="#c8974e"/>
      <path id="Path_837" data-name="Path 837" d="M178,88.267a.5.5,0,0,1,.173-.04.475.475,0,0,1,.505.425,25.745,25.745,0,0,1-2.81,12.281c-2.936,5.754-9.6,12.959-24.9,14.58a.487.487,0,0,1-.549-.4.467.467,0,0,1,.438-.5c11.94-1.256,20-5.976,24.128-14.035A25.354,25.354,0,0,0,177.726,88.7a.439.439,0,0,1,.275-.43" transform="translate(-138.217 -26.345)" fill="#c8974e"/>
      <path id="Path_838" data-name="Path 838" d="M214.529,51.135s-9.276,21.741-9.97,23.171c-.2.418-2.5,4.4-4.139,5.222-2.86,1.436-3.655.528-3.7.3a5.672,5.672,0,0,1,2.711-3.521c2-1.1,3.155-.824,4.1-1.946a11.843,11.843,0,0,0,1.007-1.386c.767-1.617,2.5-5.3,3.678-7.932,1.549-3.465,6.313-13.914,6.313-13.914" transform="translate(-146.618 -19.615)" fill="#c8974e"/>
      <path id="Path_839" data-name="Path 839" d="M206.225,75.217c2.185-2.981,8.831-11.919,8.831-11.919s-13.28,18.871-14.243,20.073a10.589,10.589,0,0,1-3.2,2.9,41.588,41.588,0,0,0-4.3,1.849c-.569.435-1.13.33-.356-.864s1.953-3.544,4.155-4.107c2.09-.535,2.99-.067,3.823-.919s3.535-4.618,5.293-7.013" transform="translate(-145.866 -21.822)" fill="#c8974e"/>
      <path id="Path_840" data-name="Path 840" d="M206.369,67.352c-.359.922-1.48,4.8-3.58,5.98-1.111.627-2.123.669-2.317.243a5.428,5.428,0,0,1,1.595-3.853c1.287-1.167,2.716-1.7,3.513-2.545a5.763,5.763,0,0,0,.369-.476s2.513-5.284,4.065-8.751,6.319-13.921,6.319-13.921-9.387,21.839-9.964,23.324" transform="translate(-147.292 -18.325)" fill="#c8974e"/>
      <path id="Path_841" data-name="Path 841" d="M207.64,59.378c.749-1.838,2.108-5.185,3.053-7.637,1.37-3.554,5.592-14.293,5.592-14.293s-7.517,20.574-8.65,23.483c-.321,1.412-.957,3.562-1.991,4.536-1.993,1.878-3.326,1.48-2.386-.747s2.847-3.393,3.582-4.229a5.911,5.911,0,0,0,.8-1.113" transform="translate(-147.748 -17.132)" fill="#c8974e"/>
      <path id="Path_842" data-name="Path 842" d="M208.99,53.823c-.02.056-.819,4.362-2.559,5.655-.922.684-1.812.861-2.024.531a4.645,4.645,0,0,1,1.033-3.468c1.024-1.162,2.231-1.82,2.859-2.641.58-.756,1.992-5.263,3.03-8.408s4.249-12.666,4.249-12.666-6.113,19.7-6.589,21" transform="translate(-148 -16.293)" fill="#c8974e"/>
      <path id="Path_843" data-name="Path 843" d="M215.925,27.56s-4.9,15.785-6.273,20.047c-.043,1.067-.249,3.594-1.2,4.811-1.518,1.946-2.749,1.879-2.215-.144s2.072-3.367,2.61-4.2c.123-.189.218-.355.3-.5.5-1.419,1.716-4.876,2.525-7.327,1.038-3.149,4.256-12.683,4.256-12.683" transform="translate(-148.321 -15.337)" fill="#c8974e"/>
      <path id="Path_844" data-name="Path 844" d="M210.057,41.581c-.157.981-.15,3.485-.99,4.661-1.373,1.933-2.193,1.316-1.766-.625s1.474-2.679,1.956-3.505a6.634,6.634,0,0,0,.386-.861s1.438-4.661,2.3-7.7,3.543-12.262,3.543-12.262-5.228,19-5.432,20.294" transform="translate(-148.517 -14.199)" fill="#c8974e"/>
      <path id="Path_845" data-name="Path 845" d="M214.956,17.606s-4.969,18.651-5.026,19.11-.13,1.848-.219,2.765c-.124,1.256-1.111,2.9-1.846,2.6-.814-.332.136-3.034.652-3.662a10.134,10.134,0,0,0,1.043-2.091c.449-1.477,1.352-4.5,1.962-6.676.837-2.99,3.434-12.045,3.434-12.045" transform="translate(-148.582 -13.531)" fill="#c8974e"/>
      <path id="Path_846" data-name="Path 846" d="M213.32,12.628s-3.75,17.516-3.783,18.377.218,4.174-.532,5.028-1.843.242-1.148-2.084c.363-1.2.98-2.122,1.184-2.765s1.056-4.368,1.509-6.413c.671-3.011,2.769-12.144,2.769-12.144" transform="translate(-148.598 -12.628)" fill="#c8974e"/>
      <path id="Path_847" data-name="Path 847" d="M197.373,44.466s-1.207,11.348-1.629,15.079c-.371,3.257-.429,3.8-.722,7.078,0,0-.236,1.742-.353,2.684,0,1.314.933,2.013,1.531,4.107a5.708,5.708,0,0,1-.579,4.424c-.187.127-1.648.362-2.407-2.868-.681-2.892.971-6.345,1.13-7.217s3.029-23.286,3.029-23.286" transform="translate(-145.951 -18.405)" fill="#c8974e"/>
      <path id="Path_848" data-name="Path 848" d="M195.973,50.339s-2,11.343-2.677,15.074c-.639,3.494-1.478,8.75-1.581,9.4a13.3,13.3,0,0,0,.028,1.512c.1,1.017,1.252,1.267,1.7,3.753s-.773,3.386-1.427,4.667-.973.756-.856,0-.6-1.895-.735-4.605a15.847,15.847,0,0,1,.6-4.852c0-.046.01-.1.018-.151.233-1.558,4.927-24.794,4.927-24.794" transform="translate(-145.473 -19.471)" fill="#c8974e"/>
      <path id="Path_849" data-name="Path 849" d="M198.345,41.445s-.345,11.246-.487,14.948c-.123,3.244-.31,8.3-.212,9.1s1.323,1.926,1.872,3.344a5.138,5.138,0,0,1-.512,4.04c-.4.327-1.307-.034-2.009-.97-1.7-2.26-.008-6.811.046-7.239s1.3-23.222,1.3-23.222" transform="translate(-146.531 -17.857)" fill="#c8974e"/>
      <path id="Path_850" data-name="Path 850" d="M199.363,35.906s.082,11.183.083,14.864c0,2.533.071,5.993.115,7.885a4.182,4.182,0,0,0,.368,1.185c.4.9,1.844,2.247,1.921,4.525s-1.383,2.544-2.64.5c-.654-1.062-.46-3.254-.239-4.681-.017-2.993.393-24.28.393-24.28" transform="translate(-146.988 -16.852)" fill="#c8974e"/>
      <path id="Path_851" data-name="Path 851" d="M200.808,31.884s.095,9.724.1,12.925.141,8.074.141,8.074a3.606,3.606,0,0,0,.134.46c.352.848,1.357,1.527,2,2.718a4.279,4.279,0,0,1-.1,3.48c-.322.326-1.155.133-1.856-.568-1.326-1.332-.854-4.368-.7-5.577.1-.787.285-21.512.285-21.512" transform="translate(-147.27 -16.122)" fill="#c8974e"/>
      <path id="Path_852" data-name="Path 852" d="M201.71,28.4s.728,9.557.943,12.7c.169,2.443.48,5.871.611,7.279a4.787,4.787,0,0,0,.166.485c.326.813,1.522,2.069,1.524,4.073s-1.265,2.164-2.286.307c-.643-1.169.043-4.154.069-4.8S201.71,28.4,201.71,28.4" transform="translate(-147.523 -15.49)" fill="#c8974e"/>
      <path id="Path_853" data-name="Path 853" d="M203.75,22.175s.512,9.18.658,12.2.478,7.649.464,7.707a4.544,4.544,0,0,0,.209.743c.292.788,1.181,1.43,1.146,3.354s-1.016,2.632-1.949.819c-.569-1.108.1-3.814.133-4.507s-.661-20.319-.661-20.319" transform="translate(-147.893 -14.36)" fill="#c8974e"/>
      <path id="Path_854" data-name="Path 854" d="M208.845,16.74s-.986,9.248-1.33,12.294c-.25,2.215-.538,5.3-.678,6.806a8.361,8.361,0,0,0,.208,2.19c.255.689.137,3.456-.783,3.657-.836.183-1.161-1.566-.794-2.808.268-.907.665-2.128.859-2.723.471-3.932,2.518-19.415,2.518-19.415" transform="translate(-148.178 -13.374)" fill="#c8974e"/>
      <path id="Path_855" data-name="Path 855" d="M225.959,85.4s-12.785,9.544-13.684,10.148c-.264.178-3,1.757-4.28,1.717-2.238-.067-2.424-.841-2.375-.983a4.075,4.075,0,0,1,2.84-1.18c1.594-.006,2.212.512,3.163.159a8.59,8.59,0,0,0,1.078-.48c1-.692,3.28-2.265,4.867-3.408,2.084-1.5,8.392-5.973,8.392-5.973" transform="translate(-148.231 -25.833)" fill="#c8974e"/>
      <path id="Path_856" data-name="Path 856" d="M213.273,96.909c2.326-1.035,9.339-4.09,9.339-4.09s-14.381,6.71-15.377,7.1a7.841,7.841,0,0,1-2.938.673,31.481,31.481,0,0,0-3.268-.282c-.5.074-.806-.164.071-.61s2.389-1.435,3.93-1.071c1.462.347,1.863.9,2.658.668s3.71-1.558,5.584-2.389" transform="translate(-147.312 -27.178)" fill="#c8974e"/>
      <path id="Path_857" data-name="Path 857" d="M215.626,92c-.525.417-2.491,2.3-4.172,2.32-.891.014-1.527-.279-1.506-.586a3.713,3.713,0,0,1,2.254-1.715c1.175-.269,2.228-.128,3-.366a3.837,3.837,0,0,0,.382-.156s3.276-2.242,5.358-3.738,8.364-5.948,8.364-5.948S216.468,91.33,215.626,92" transform="translate(-149.018 -25.181)" fill="#c8974e"/>
      <path id="Path_858" data-name="Path 858" d="M219.074,87.669c1.06-.816,2.98-2.3,4.356-3.4,1.987-1.592,8.013-6.354,8.013-6.354s-11.234,9.331-12.878,10.637a6.84,6.84,0,0,1-2.709,1.977c-1.843.456-2.529-.186-1.22-1.167a9.794,9.794,0,0,1,3.584-1.306,4.019,4.019,0,0,0,.854-.388" transform="translate(-149.745 -24.475)" fill="#c8974e"/>
      <path id="Path_859" data-name="Path 859" d="M221.838,84.79c-.031.025-1.924,2.23-3.413,2.429-.79.1-1.394-.071-1.418-.325a3.1,3.1,0,0,1,1.768-1.655c1.008-.345,1.96-.346,2.613-.618a45.02,45.02,0,0,0,4.576-3.832c1.648-1.456,6.651-5.819,6.651-5.819S222.552,84.2,221.838,84.79" transform="translate(-150.299 -23.94)" fill="#c8974e"/>
      <path id="Path_860" data-name="Path 860" d="M234.591,72.037s-8.028,7.358-10.243,9.345a6.442,6.442,0,0,1-2.3,2.357c-1.562.637-2.3.219-1.31-.764a8.987,8.987,0,0,1,2.962-1.578c.136-.069.249-.134.343-.192.766-.649,2.623-2.226,3.9-3.358,1.645-1.454,6.639-5.81,6.639-5.81" transform="translate(-150.895 -23.408)" fill="#c8974e"/>
      <path id="Path_861" data-name="Path 861" d="M226.555,78.012c-.413.507-1.214,1.92-2.108,2.328-1.468.67-1.768.07-.88-.9a6.118,6.118,0,0,1,2.329-1.375,4.836,4.836,0,0,0,.513-.369s2.375-2.179,3.874-3.62,6.047-5.759,6.047-5.759-9.236,9.027-9.776,9.692" transform="translate(-151.398 -22.733)" fill="#c8974e"/>
      <path id="Path_862" data-name="Path 862" d="M237.285,66.059s-8.948,8.885-9.13,9.124-.672,1-1.022,1.486c-.48.668-1.612,1.293-1.966.9-.39-.435,1.062-1.665,1.579-1.861a6.875,6.875,0,0,0,1.306-.854c.748-.693,2.265-2.108,3.331-3.139,1.461-1.414,5.9-5.656,5.9-5.656" transform="translate(-151.767 -22.323)" fill="#c8974e"/>
      <path id="Path_863" data-name="Path 863" d="M237.93,62.708s-7.822,8.578-8.117,9.052-1.2,2.4-1.935,2.654-1.2-.426-.029-1.518c.6-.563,1.275-.888,1.605-1.188s2.035-2.114,2.961-3.115c1.365-1.469,5.515-5.885,5.515-5.885" transform="translate(-152.137 -21.715)" fill="#c8974e"/>
      <path id="Path_864" data-name="Path 864" d="M217.483,75.483s-4.423,6.015-5.9,8c-1.3,1.733-1.513,2.028-2.769,3.8,0,0-.721.923-1.1,1.424-.436.751-.095,1.441-.424,2.829a3.787,3.787,0,0,1-1.829,2.364c-.156.014-1.131-.309-.521-2.4.544-1.87,2.7-3.33,3.088-3.778s9.462-12.236,9.462-12.236" transform="translate(-148.071 -24.033)" fill="#c8974e"/>
      <path id="Path_865" data-name="Path 865" d="M214.506,78.434s-4.922,5.793-6.569,7.7c-1.544,1.793-3.8,4.538-4.08,4.877a8.7,8.7,0,0,0-.489.877c-.279.613.346,1.118-.2,2.691s-1.609,1.711-2.439,2.247-.854.13-.526-.272.271-1.281,1.094-2.886a10.472,10.472,0,0,1,1.985-2.6c.02-.025.04-.051.065-.08.66-.82,11.165-12.556,11.165-12.556" transform="translate(-147.213 -24.568)" fill="#c8974e"/>
      <path id="Path_866" data-name="Path 866" d="M219.182,73.94s-3.859,6.21-5.153,8.257c-1.138,1.8-2.912,4.619-3.117,5.109s.175,1.51.043,2.491a3.367,3.367,0,0,1-1.651,2.159c-.354.063-.791-.427-.912-1.183-.291-1.825,2.247-3.9,2.423-4.126s8.366-12.706,8.366-12.706" transform="translate(-148.731 -23.753)" fill="#c8974e"/>
      <path id="Path_867" data-name="Path 867" d="M221.667,71.059s-3.56,6.282-4.754,8.353c-.824,1.432-1.911,3.409-2.506,4.5a2.6,2.6,0,0,0-.165.785,5.744,5.744,0,0,1-.308,3.177c-.7,1.325-1.687,1.025-1.784-.534a5.245,5.245,0,0,1,1.392-2.741c.971-1.706,8.124-13.54,8.124-13.54" transform="translate(-149.417 -23.23)" fill="#c8974e"/>
      <path id="Path_868" data-name="Path 868" d="M224.027,69.25s-3.07,5.452-4.1,7.252-2.534,4.595-2.534,4.595a2.27,2.27,0,0,0-.07.3c-.059.589.332,1.283.337,2.157a2.725,2.725,0,0,1-1.2,1.948c-.3.086-.751-.283-.95-.9-.374-1.165.906-2.742,1.393-3.38.318-.414,7.128-11.974,7.128-11.974" transform="translate(-150.014 -22.902)" fill="#c8974e"/>
      <path id="Path_869" data-name="Path 869" d="M225.877,67.557s-2.619,5.54-3.5,7.366c-.686,1.421-1.606,3.448-1.983,4.279a3.247,3.247,0,0,0-.056.327,5.172,5.172,0,0,1-.393,2.772c-.65,1.138-1.477.84-1.5-.529-.01-.861,1.379-2.339,1.6-2.691s5.831-11.524,5.831-11.524" transform="translate(-150.559 -22.595)" fill="#c8974e"/>
      <path id="Path_870" data-name="Path 870" d="M229.049,64.727s-2.614,5.244-3.494,6.974-2.171,4.429-2.2,4.458a2.829,2.829,0,0,0-.111.481,3.631,3.631,0,0,1-.385,2.242c-.644,1.076-1.474,1.177-1.457-.133.012-.8,1.295-2.123,1.541-2.5s6.106-11.521,6.106-11.521" transform="translate(-151.096 -22.081)" fill="#c8974e"/>
      <path id="Path_871" data-name="Path 871" d="M233.848,63.491s-3.526,4.82-4.7,6.409c-.861,1.16-2.023,2.793-2.592,3.6a5.085,5.085,0,0,0-.578,1.291c-.065.467-1.029,1.984-1.655,1.817-.568-.153-.2-1.235.422-1.82.453-.427,1.088-.99,1.4-1.264,1.548-2.057,7.708-10.028,7.708-10.028" transform="translate(-151.574 -21.857)" fill="#c8974e"/>
      <path id="Path_872" data-name="Path 872" d="M143.62,116.9a.583.583,0,0,1,.179-.045c27.73-1.92,44.987-15.1,45.157-15.227a.482.482,0,0,1,.653.06.423.423,0,0,1-.064.618c-.173.134-17.632,13.489-45.671,15.453a.485.485,0,0,1-.537-.416.447.447,0,0,1,.282-.443" transform="translate(-136.931 -28.758)" fill="#c8974e"/>
      <path id="Path_873" data-name="Path 873" d="M182.252,93.956a.5.5,0,0,1,.418.011.435.435,0,0,1,.2.6,41.1,41.1,0,0,1-9.821,10.915c-6.154,4.879-16.721,10.5-32.076,9.348a.473.473,0,0,1-.461-.49.49.49,0,0,1,.544-.415c15,1.142,25.329-4.339,31.345-9.1a40.977,40.977,0,0,0,9.634-10.677.452.452,0,0,1,.218-.194" transform="translate(-136.418 -27.377)" fill="#c8974e"/>
      <path id="Path_874" data-name="Path 874" d="M135.718,113.473a2.251,2.251,0,0,0,.328.19c.688.338,2.709,1.029,6.58.161.128-.03.353-.092.645-.175a18.77,18.77,0,0,1,4.753-.871,10.248,10.248,0,0,1,1.852.684,9.973,9.973,0,0,1,1.769,1.18,15.321,15.321,0,0,0,2.644,1.734c.1.053.2.1.295.151,2.61,1.3,4.777,1.776,6.445,1.428a4.417,4.417,0,0,0,.853-.271,3.407,3.407,0,0,0,1.566-1.351,2.25,2.25,0,0,0,.177-.357.474.474,0,0,0-.205-.553.58.58,0,0,0-.61.013c-1.2.821-2.725.656-5.133-.549-.747-.374-1.579-.846-2.7-1.535-.286-.175-.58-.339-.877-.488a10.214,10.214,0,0,0-5.937-1.072l-.026-.006a18.23,18.23,0,0,0-5.916-.309,10.513,10.513,0,0,1-5.389-.643c-.043-.02-.065-.034-.072-.038a.61.61,0,0,0-.548-.038.771.771,0,0,0-.1.056.591.591,0,0,0-.153.166.462.462,0,0,0,0,.445,1.022,1.022,0,0,1-.1,1.049,1.88,1.88,0,0,1-.2.273.463.463,0,0,0-.142.369.53.53,0,0,0,.205.356" transform="translate(-135.511 -30.425)" fill="#c8974e"/>
      <path id="Path_875" data-name="Path 875" d="M166.715,111.714a5.866,5.866,0,0,1,4.142.494,12.236,12.236,0,0,1,2.072,1.406,10.191,10.191,0,0,0,.921.679c.15.094.305.182.462.26a3.714,3.714,0,0,0,2.771.286.406.406,0,0,0,.1-.011,8.564,8.564,0,0,0,2.33-1.183l.2-.138c.371-.261.726-.533,1.1-.82s.765-.587,1.173-.875a12.783,12.783,0,0,1,2.213-1.279,14.094,14.094,0,0,1,1.958.023c.3.024.731.078,1.274.145a47.04,47.04,0,0,0,6.34.458,11.546,11.546,0,0,0,4.58-.959,6.95,6.95,0,0,0,1.092-.593l.021-.007c.2-.078.433-.171.714-.3a13.665,13.665,0,0,0,2.351-1.369c.365-.26.743-.549,1.12-.86.239-.2.481-.381.72-.552a8.971,8.971,0,0,1,2.413-1.262,3.717,3.717,0,0,1,.823-.184l.028,0a.512.512,0,0,0,.443-.347.455.455,0,0,0-.234-.539.745.745,0,0,1-.247-.208,1.284,1.284,0,0,1-.207-.817.455.455,0,0,0-.122-.372.549.549,0,0,0-.326-.155,3.569,3.569,0,0,0-1.61.385,7.538,7.538,0,0,0-1.282.742l-.007.006a12.282,12.282,0,0,0-1.956,1.771c-.072.079-.189.224-.341.415a15.213,15.213,0,0,1-2.576,2.685c-.067.046-.135.09-.2.133a14.213,14.213,0,0,1-5.605.118c-.695-.07-1.414-.144-2.225-.206a20.677,20.677,0,0,0-7.162.913.239.239,0,0,1-.025,0,18.8,18.8,0,0,0-3.345,1.1,12.348,12.348,0,0,0-2.1,1.164c-.1.068-.189.136-.287.209s-.178.136-.264.2a5.383,5.383,0,0,1-.895.52,2.43,2.43,0,0,1-.715.2c-.076-.053-.151-.1-.228-.166l-.229-.184a23.943,23.943,0,0,0-3.909-2.7,5.285,5.285,0,0,0-3.385-.727,3.289,3.289,0,0,0-.661.209,4.6,4.6,0,0,0-1.774,1.536l0,.007c-.011.016-.02.03-.029.046a.455.455,0,0,0,.032.507.553.553,0,0,0,.567.195" transform="translate(-141.053 -28.959)" fill="#c8974e"/>
      <path id="Path_876" data-name="Path 876" d="M211.649,104.21a11.758,11.758,0,0,0-1.881,1.706,18.975,18.975,0,0,1-2.993,3.165c-.084.059-.167.115-.251.165a.042.042,0,0,0-.016.053.041.041,0,0,0,.053.018,12.523,12.523,0,0,0,3.034-1.635c.34-.242.7-.521,1.1-.841.257-.212.507-.4.747-.574a9.408,9.408,0,0,1,2.542-1.326,3.779,3.779,0,0,1,.959-.205.041.041,0,0,0,.038-.03.034.034,0,0,0-.02-.043,1.185,1.185,0,0,1-.39-.328,1.705,1.705,0,0,1-.292-1.127.036.036,0,0,0-.009-.029.044.044,0,0,0-.03-.016,4.46,4.46,0,0,0-2.586,1.046l0,0" transform="translate(-148.393 -29.055)" fill="#fff"/>
      <path id="Path_877" data-name="Path 877" d="M188.068,111.493a.046.046,0,0,0,.047.032,14.207,14.207,0,0,1,2.077.02,63.1,63.1,0,0,0,7.57.6,10.008,10.008,0,0,0,5.427-1.482l.011-.007-.034-.025.034.025a.037.037,0,0,0,0-.047.038.038,0,0,0-.046-.016c-2.5.723-4.6.214-8.071-.052a20.263,20.263,0,0,0-6.988.9l-.011.006a.038.038,0,0,0-.018.042" transform="translate(-145.047 -30.388)" fill="#fff"/>
      <path id="Path_878" data-name="Path 878" d="M136.523,111.328a1.454,1.454,0,0,1-.107,1.467,2.113,2.113,0,0,1-.272.363.036.036,0,0,0-.013.031.046.046,0,0,0,.017.029,1.651,1.651,0,0,0,.25.144c.635.312,2.514.95,6.219.12a22.573,22.573,0,0,1,5.594-1.055.05.05,0,0,0,.048-.036.042.042,0,0,0-.037-.045,17.593,17.593,0,0,0-5.842-.316,11.028,11.028,0,0,1-5.675-.695c-.079-.038-.116-.06-.116-.06a.048.048,0,0,0-.055,0,.071.071,0,0,0-.011.011.035.035,0,0,0,0,.038" transform="translate(-135.624 -30.526)" fill="#fff"/>
      <path id="Path_879" data-name="Path 879" d="M150.893,112.615a.045.045,0,0,0,.034.042,10.654,10.654,0,0,1,1.977.73c1.609.8,2.186,1.77,4.421,2.92.1.05.192.1.285.145,2.911,1.45,4.839,1.651,6.106,1.387a3.083,3.083,0,0,0,2.1-1.4,1.88,1.88,0,0,0,.138-.28.04.04,0,0,0-.016-.047.05.05,0,0,0-.053,0c-1.518,1.041-3.417.6-5.655-.513-.865-.434-1.778-.967-2.736-1.554-.282-.172-.563-.327-.84-.467a9.429,9.429,0,0,0-5.727-1l.011.041-.011-.041a.04.04,0,0,0-.029.02.025.025,0,0,0-.007.019" transform="translate(-138.302 -30.745)" fill="#fff"/>
      <path id="Path_880" data-name="Path 880" d="M175.9,114.7a25.123,25.123,0,0,0-4.058-2.826,4.919,4.919,0,0,0-3.047-.679,3.61,3.61,0,0,0-2.14,1.564l0,0a.044.044,0,0,0,0,.046.05.05,0,0,0,.048.016,6.364,6.364,0,0,1,4.494.536,27.242,27.242,0,0,1,3.024,2.1q.214.133.431.244a3.456,3.456,0,0,0,3.38-.119.04.04,0,0,0,.022-.047.042.042,0,0,0-.045-.029,2.427,2.427,0,0,1-1.31-.286,4.629,4.629,0,0,1-.8-.526" transform="translate(-141.161 -30.504)" fill="#fff"/>
      <path id="Path_881" data-name="Path 881" d="M180.3,115.263c.353.043.563.062.692.076q.3-.18.643-.412c.065-.043.127-.088.191-.133.745-.525,1.463-1.121,2.276-1.7a13.247,13.247,0,0,1,2.371-1.36.038.038,0,0,0,.023-.048.043.043,0,0,0-.051-.026,16.386,16.386,0,0,0-5.263,2.188c-.092.065-.181.13-.269.2s-.19.143-.282.209a5.161,5.161,0,0,1-1.347.706,2.909,2.909,0,0,0,1.016.3" transform="translate(-143.454 -30.598)" fill="#fff"/>
    </g>
  </g>
</svg>
