<svg width="24" height="24" xmlns="http://www.w3.org/2000/svg">

 <g>
  <title>background</title>
  <rect fill="none" id="canvas_background" height="402" width="582" y="-1" x="-1"/>
 </g>
 <g>
  <title>Layer 1</title>
  <path id="svg_3" fill="#ab6a35" d="m5,2.048285c-1.1046,0 -2,0.9 -2,2l0,8l0,4l0,6c0,1.1 0.8954,2 2,2l14,0c1.105,0 2,-0.9 2,-2l0,-6l0,-4l0,-4l-6,-6l-10,0z"/>
  <path id="svg_4" fill="#035938" d="m5,0.999976c-1.1046,0 -2,0.9 -2,2l0,8l0,4l0,6c0,1.1 0.8954,2 2,2l14,0c1.105,0 2,-0.9 2,-2l0,-6l0,-4l0,-4l-6,-6l-10,0z"/>
  <path id="svg_5" fill="#ab6a35" d="m21,6.999976l-6,-6l0,4c0,1.1 0.895,2 2,2l4,0z"/>
  <path id="svg_6" fill="#ecf0f1" d="m19.112,10.999976l-0.29,0c-0.09,0.1 -0.601,0.8 -0.822,1c-0.06,0.1 -0.15,0.2 -0.201,0.2c-0.743,0.9 -2.323,2.4 -3.271,3.2c-0.124,0.1 -0.244,0.2 -0.266,0.2c-0.066,0.1 -0.698,0.5 -0.982,0.7c-0.905,0.6 -1.967,1.1 -2.792,1.3c-1.6281,0.4 -2.8984,0.3 -4.5476,-0.5c-0.4984,-0.2 -1.2085,-0.6 -1.5978,-0.9c-0.382,-0.3 -0.3417,-0.3 -0.3411,0.2l0,0.5l0.2578,0.1c0.3307,0.2 1.0445,0.6 1.5099,0.8c0.3546,0.2 0.4651,0.3 0.2667,0.3c-0.1828,-0.1 -1.2202,-0.1 -1.6188,0l-0.4,0c-0.0092,0 -0.0167,0.2 -0.0167,0.4l0,0.4l0.1333,0c0.5736,-0.2 1.8047,-0.2 2.3778,-0.1c0.6748,0.1 1.1496,0.2 1.7199,0.5c1.0881,0.5 1.9906,1.5 2.3836,2.5l0.08,0.2l0.44,0l0.44,0l-0.024,-0.1c-0.141,-0.6 -0.537,-1.3 -1.027,-1.8c-0.322,-0.4 -0.8907,-0.8 -1.1148,-1l-0.0756,0c-0.0364,-0.1 -0.4165,-0.3 -0.5789,-0.3c-0.0924,-0.1 -0.1677,-0.1 -0.1677,-0.1c0,-0.1 0.07,-0.1 0.1555,0c0.2135,0 1.0733,-0.1 1.4625,-0.2c1.078,-0.2 2.098,-0.6 3.129,-1.2c0.37,-0.2 1.21,-0.9 1.546,-1.1c0.25,-0.3 0.33,-0.3 0.228,-0.2c-0.036,0.1 -0.105,0.2 -0.155,0.3c-0.049,0.1 -0.135,0.2 -0.19,0.3c-0.778,1.2 -1.277,2.7 -1.412,4.4c-0.019,0.3 -0.035,0.6 -0.035,0.7l0,0.3l2.332,0l2.332,0l-0.076,-0.1c-0.42,-0.6 -0.941,-1.9 -1.116,-2.8c-0.144,-0.7 -0.187,-1.8 -0.097,-2.4c0.262,-1.6 1.155,-3 2.689,-3.9c0.158,-0.1 0.362,-0.2 0.453,-0.3l0.167,-0.1l0,-0.3c0,-0.2 -0.012,-0.4 -0.027,-0.4c-0.364,0.2 -1.174,0.7 -1.546,0.9c-0.199,0.2 -0.211,0.2 -0.024,0c0.268,-0.3 0.73,-0.8 1.221,-1.4l0.229,-0.2l-0.501,0l-0.24,0z"/>
 </g>
</svg>